<?xml version="1.0" encoding="UTF-8"?>
<svg width="1920px" height="477px" viewBox="0 0 1920 477" version="1.1" xmlns="http://www.w3.org/2000/svg">
    <!-- Generator: Sketch 46.2 (44496) - http://www.bohemiancoding.com/sketch -->
    <title>Group 4</title>
    <desc>Created with Sketch.</desc>
    <defs>
        <filter x="-0.8%" y="-3.6%" width="101.5%" height="107.2%" filterUnits="objectBoundingBox" id="filter-1">
            <feGaussianBlur stdDeviation="5.37946429" in="SourceGraphic"></feGaussianBlur>
        </filter>
        <linearGradient x1="50.000006%" y1="50%" x2="50%" y2="138.434076%" id="linearGradient-2">
            <stop stop-color="#FFFFFF" offset="0%"></stop>
            <stop stop-color="#FBFBFB" offset="49.8844069%"></stop>
            <stop stop-color="#FAFAFA" offset="100%"></stop>
        </linearGradient>
    </defs>
    <g id="Page-1" stroke="none" stroke-width="1" fill="none" fill-rule="evenodd">
        <g id="PC_首页_交互说明" transform="translate(0.000000, -19.000000)">
            <g id="Group-4" transform="translate(-146.000000, 32.000000)">
                <path d="M1881.75653,279.927503 C1864.42551,292.551738 1843.08257,300 1820,300 C1784.91799,300 1753.85443,282.79497 1734.78677,256.362363 C1728.48314,258.082005 1721.84877,259 1715,259 C1714.33523,259 1713.67248,258.991351 1713.01185,258.97416 C1701.80547,304.907322 1660.38412,339 1611,339 C1590.26064,339 1570.92564,332.987193 1554.64316,322.60973 C1533.41448,371.680273 1484.70067,406 1428,406 C1380.64719,406 1338.86485,382.063597 1314.01009,345.58907 C1311.21037,345.860887 1308.37153,346 1305.5,346 C1258.39867,346 1220.09018,308.570987 1219.02286,261.99685 C1218.84882,261.998948 1218.67453,262 1218.5,262 C1218.33118,262 1218.16259,261.999016 1217.99424,261.997053 C1217.99808,262.330915 1218,262.665234 1218,263 C1218,310.496488 1179.27263,349 1131.5,349 C1119.19667,349 1107.49329,346.446199 1096.89686,341.842685 C1083.4856,404.240515 1028.18372,451 962,451 C885.784705,451 824,388.991438 824,312.5 C824,304.461691 824.682315,296.583322 825.991989,288.920048 C813.605101,295.971871 799.272961,300 784,300 C764.55072,300 746.627133,293.467733 732.303494,282.477455 C713.603001,323.500647 672.365707,352 624.5,352 C569.786919,352 523.734337,314.76354 510.101152,264.149766 C501.30859,270.355011 490.579962,274 479,274 C473.904554,274 468.973942,273.294257 464.300582,271.975188 C448.76546,294.912115 422.404956,310 392.5,310 C363.729057,310 338.238849,296.034702 322.513023,274.550278 C304.867692,283.780167 284.793424,289 263.5,289 C242.103119,289 221.937271,283.729321 204.229953,274.415461 C189.982018,315.502247 150.935794,345 105,345 C47.0101013,345 0,297.989899 0,240 C0,182.010101 47.0101013,135 105,135 C116.442736,135 127.45796,136.830401 137.768848,140.214381 C137.897452,139.449155 138.032873,138.686241 138.175046,137.925705 C117.60384,124.552134 104,101.36474 104,75 C104,33.5786438 137.578644,0 179,0 C205.994457,0 229.657974,14.2614514 242.867095,35.6608981 C249.583081,34.5681121 256.475196,34 263.5,34 C325.914425,34 377.85422,78.8472221 388.852783,138.075064 C390.062274,138.025186 391.278179,138 392.5,138 C419.524445,138 443.65437,150.321273 459.516644,169.621744 C465.560528,167.282734 472.130465,166 479,166 C494.017724,166 507.603612,172.130421 517.391666,182.025264 C536.405152,141.807545 577.218821,114 624.5,114 C662.857445,114 696.958318,132.301445 718.616054,160.683227 C734.207729,141.935399 757.710033,130 784,130 C814.111999,130 840.566878,145.657991 855.666771,169.276106 C859.603299,166.578324 864.367331,165 869.5,165 C883.030976,165 894,175.969024 894,189.5 C894,190.353315 893.956376,191.19644 893.871236,192.027268 C913.971083,180.553376 937.222993,174 962,174 C988.077091,174 1012.46484,181.259149 1033.2665,193.873829 C1035.01884,182.062371 1045.20111,173 1057.5,173 C1069.41708,173 1079.34692,181.508436 1081.54612,192.781931 C1095.65552,182.842008 1112.89156,177 1131.5,177 C1151.24948,177 1169.45309,183.580417 1184.0137,194.656249 C1191.73197,183.961075 1204.30306,177 1218.5,177 C1231.84634,177 1243.75583,183.151932 1251.54744,192.774785 C1266.33926,181.024847 1285.09449,174 1305.5,174 C1311.97701,174 1318.28776,174.707769 1324.35825,176.04976 C1349.64822,147.202906 1386.70603,129 1428,129 C1466.83023,129 1501.91471,145.095607 1526.99101,171.001725 C1546.14727,145.497363 1576.64705,129 1611,129 C1626.78962,129 1641.76523,132.485218 1655.1995,138.728334 C1668.89463,120.666239 1690.58492,109 1715,109 C1727.38291,109 1739.0649,112.000957 1749.35839,117.315273 C1768.00984,100.344881 1792.79683,90 1820,90 C1821.96912,90 1823.92557,90.0542037 1825.86796,90.1612006 C1835.82886,60.4264199 1863.91223,39 1897,39 C1923.99446,39 1947.65797,53.2614514 1960.86709,74.6608981 C1967.58308,73.5681121 1974.4752,73 1981.5,73 C2051.91631,73 2109,130.083694 2109,200.5 C2109,270.916306 2051.91631,328 1981.5,328 C1941.11616,328 1905.11746,309.224959 1881.75653,279.9275 Z"
                      id="Combined-Shape" fill="#F5F9FF" filter="url(#filter-1)"></path>
                <g id="Group-15" transform="translate(0.000000, 10.000000)" fill="url(#linearGradient-2)">
                    <circle id="Oval-4" cx="479" cy="220" r="54"></circle>
                    <circle id="Oval-4-Copy-4" cx="1218.5" cy="219.5" r="42.5"></circle>
                    <ellipse id="Oval-4-Copy-2" cx="392.5" cy="224" rx="86.5" ry="86"></ellipse>
                    <ellipse id="Oval-4-Copy-5" cx="1131.5" cy="263" rx="86.5" ry="86"></ellipse>
                    <ellipse id="Oval-4-Copy-11" cx="1305.5" cy="260" rx="86.5" ry="86"></ellipse>
                    <circle id="Oval-4" cx="869.5" cy="189.5" r="24.5"></circle>
                    <circle id="Oval-4-Copy-6" cx="1715.5" cy="232.5" r="24.5"></circle>
                    <circle id="Oval-4-Copy-13" cx="137.5" cy="287.5" r="24.5"></circle>
                    <circle id="Oval-4-Copy-7" cx="1057.5" cy="197.5" r="24.5"></circle>
                    <circle id="Oval-4" cx="784" cy="215" r="85"></circle>
                    <circle id="Oval-4-Copy-8" cx="1611" cy="234" r="105"></circle>
                    <circle id="Oval-4-Copy-14" cx="105" cy="240" r="105"></circle>
                    <circle id="Oval-4-Copy-17" cx="1820" cy="195" r="105"></circle>
                    <ellipse id="Oval-4" cx="624.5" cy="233" rx="118.5" ry="119"></ellipse>
                    <ellipse id="Oval-4-Copy-9" cx="1428" cy="267.5" rx="138" ry="138.5"></ellipse>
                    <ellipse id="Oval-4-Copy" cx="962" cy="312.5" rx="138" ry="138.5"></ellipse>
                    <circle id="Oval-4-Copy-10" cx="1715" cy="184" r="75"></circle>
                    <circle id="Oval-4-Copy-15" cx="179" cy="75" r="75"></circle>
                    <circle id="Oval-4-Copy-18" cx="1897" cy="114" r="75"></circle>
                    <circle id="Oval-4-Copy-16" cx="263.5" cy="161.5" r="127.5"></circle>
                    <circle id="Oval-4-Copy-19" cx="1981.5" cy="200.5" r="127.5"></circle>
                </g>
            </g>
        </g>
    </g>
</svg>